<svg id="visual" viewBox="0 0 1920 600" width="1920" height="600" xmlns="http://www.w3.org/2000/svg" xmlns:xlink="http://www.w3.org/1999/xlink" version="1.1"><rect x="0" y="0" width="1920" height="600" fill="#D84040"></rect><path d="M0 152L274 152L274 146L549 146L549 88L823 88L823 69L1097 69L1097 176L1371 176L1371 112L1646 112L1646 148L1920 148L1920 72L1920 601L1920 601L1646 601L1646 601L1371 601L1371 601L1097 601L1097 601L823 601L823 601L549 601L549 601L274 601L274 601L0 601Z" fill="#9900ff"></path><path d="M0 259L274 259L274 257L549 257L549 211L823 211L823 214L1097 214L1097 157L1371 157L1371 244L1646 244L1646 191L1920 191L1920 260L1920 601L1920 601L1646 601L1646 601L1371 601L1371 601L1097 601L1097 601L823 601L823 601L549 601L549 601L274 601L274 601L0 601Z" fill="#8800e2"></path><path d="M0 297L274 297L274 344L549 344L549 310L823 310L823 312L1097 312L1097 261L1371 261L1371 318L1646 318L1646 308L1920 308L1920 308L1920 601L1920 601L1646 601L1646 601L1371 601L1371 601L1097 601L1097 601L823 601L823 601L549 601L549 601L274 601L274 601L0 601Z" fill="#7700c6"></path><path d="M0 414L274 414L274 412L549 412L549 370L823 370L823 450L1097 450L1097 441L1371 441L1371 370L1646 370L1646 374L1920 374L1920 420L1920 601L1920 601L1646 601L1646 601L1371 601L1371 601L1097 601L1097 601L823 601L823 601L549 601L549 601L274 601L274 601L0 601Z" fill="#6600ab"></path><path d="M0 536L274 536L274 450L549 450L549 508L823 508L823 544L1097 544L1097 524L1371 524L1371 528L1646 528L1646 535L1920 535L1920 471L1920 601L1920 601L1646 601L1646 601L1371 601L1371 601L1097 601L1097 601L823 601L823 601L549 601L549 601L274 601L274 601L0 601Z" fill="#560090"></path></svg>